<?xml version="1.0" encoding="UTF-8" standalone="no"?>
<svg
   id="Layer_1"
   data-name="Layer 1"
   viewBox="0 0 793.70077 1122.5197"
   version="1.1"
   sodipodi:docname="ostival-doc-cover.svg"
   width="210mm"
   height="297mm"
   inkscape:version="1.4.2 (f4327f4, 2025-05-13)"
   inkscape:export-filename="ostival-doc-cover.jpg"
   inkscape:export-xdpi="96"
   inkscape:export-ydpi="96"
   xmlns:inkscape="http://www.inkscape.org/namespaces/inkscape"
   xmlns:sodipodi="http://sodipodi.sourceforge.net/DTD/sodipodi-0.dtd"
   xmlns="http://www.w3.org/2000/svg"
   xmlns:svg="http://www.w3.org/2000/svg">
  <sodipodi:namedview
     id="namedview8"
     pagecolor="#ffffff"
     bordercolor="#000000"
     borderopacity="0.25"
     inkscape:showpageshadow="2"
     inkscape:pageopacity="0.0"
     inkscape:pagecheckerboard="0"
     inkscape:deskcolor="#d1d1d1"
     inkscape:zoom="1.7655492"
     inkscape:cx="356.54629"
     inkscape:cy="717.34054"
     inkscape:window-width="2880"
     inkscape:window-height="1694"
     inkscape:window-x="-11"
     inkscape:window-y="-11"
     inkscape:window-maximized="1"
     inkscape:current-layer="Layer_1"
     showguides="true"
     inkscape:document-units="mm">
    <sodipodi:guide
       position="399.87556,338.62762"
       orientation="1,0"
       id="guide8"
       inkscape:locked="false" />
  </sodipodi:namedview>
  <defs
     id="defs1">
    <style
       id="style1">
      .cls-1 {
        fill: #73f8ff;
      }

      .cls-2 {
        fill: #b8ffc2;
        stroke: #e0e0e0;
      }

      .cls-2, .cls-3 {
        stroke-miterlimit: 10;
      }

      .cls-3 {
        fill: none;
        stroke: #000;
        stroke-width: 5px;
      }
    </style>
  </defs>
  <rect
     class="cls-2"
     x="-50.975449"
     y="-15.088528"
     width="934.97418"
     height="1232.3726"
     id="rect1"
     style="stroke-width:1.25628" />
  <path
     class="cls-1"
     d="m -50.382025,1138.7745 c 0,0 577.526915,-216.2992 501.300505,-672.38442 C 400.77487,166.34331 701.68169,212.84279 864.47049,69.429896 1027.2705,-73.971972 74.3278,-75.462161 -37.84296,-38.500757 -182.24165,9.090359 -83.242522,332.66963 -83.242522,332.66963 c 0,0 -99.519068,332.64161 -102.489958,390.73012 -2.97088,58.07748 135.350455,415.37475 135.350455,415.37475 z"
     id="path1"
     style="stroke-width:1.11606"
     sodipodi:nodetypes="ccccccc" />
  <path
     class="cls-3"
     d="m 642.91371,838.74221 -60.17098,114.85751 c -6.12434,11.69367 1.69259,26.19214 14.148,26.19214 h 120.34195 c 12.44249,0 20.27234,-14.49847 14.148,-26.19214 L 671.2097,838.74221 c -6.2277,-11.87507 -22.06829,-11.87507 -28.28307,0 z"
     id="path2"
     style="stroke-width:5;stroke-dasharray:none" />
  <ellipse
     class="cls-3"
     cx="-624.91229"
     cy="579.80475"
     rx="72.813599"
     ry="73.916832"
     transform="rotate(-74.95)"
     id="ellipse2" />
  <rect
     class="cls-3"
     x="561.28558"
     y="230.81783"
     width="131.81"
     height="124"
     rx="22.82"
     ry="22.82"
     transform="rotate(24.27)"
     id="rect2" />
  <path
     class="cls-3"
     d="m 174.08037,879.10706 14.21,41.09 c 0.94,2.73 3.51,4.56 6.4,4.56 h 45.04 c 6.66,0 9.32,8.61 3.82,12.37 l -35.7,24.37002 c -2.52,1.72 -3.58,4.92 -2.58,7.81 l 13.81,39.92002 c 2.13,6.17 -4.83,11.49 -10.22,7.81 l -37.36,-25.50002 c -2.3,-1.57 -5.34,-1.57 -7.64,0 l -37.36,25.50002 c -5.39,3.68 -12.36,-1.64 -10.22,-7.81 l 13.81,-39.92002 c 1,-2.89 -0.06,-6.09 -2.58,-7.81 L 91.810369,937.12706 c -5.5,-3.76 -2.84,-12.37 3.82,-12.37 h 45.040001 c 2.89,0 5.46,-1.83 6.4,-4.56 l 14.21,-41.09 c 2.1,-6.08 10.7,-6.08 12.81,0 z"
     id="path3" />
  <rect
     class="cls-3"
     x="760.03198"
     y="719.09656"
     width="82.010002"
     height="78.699997"
     rx="22.82"
     ry="22.82"
     transform="rotate(24.27)"
     id="rect3" />
  <ellipse
     class="cls-3"
     cx="-229.56631"
     cy="748.37506"
     rx="94.019562"
     ry="96.463676"
     transform="matrix(0.25640302,-0.96656996,0.9648078,0.2629561,0,0)"
     id="ellipse3"
     style="stroke-width:5.00005756;stroke-dasharray:none" />
  <ellipse
     class="cls-3"
     cx="48.396694"
     cy="361.78165"
     rx="66"
     ry="67"
     transform="rotate(-74.95)"
     id="ellipse4" />
  <path
     class="cls-3"
     d="m 167.16809,64.89054 11.86,38.79 c 0.79,2.58 2.93,4.31 5.34,4.31 h 37.58 c 5.56,0 7.78,8.13 3.19,11.68 l -29.78,23.01 c -2.11,1.63 -2.99,4.65 -2.15,7.37 l 11.52,37.69 c 1.78,5.82 -4.03,10.85 -8.53,7.37 l -31.17,-24.08 c -1.92,-1.48 -4.45,-1.48 -6.37,0 l -31.17,24.08 c -4.5,3.47 -10.31,-1.55 -8.53,-7.37 l 11.52,-37.69 c 0.83,-2.73 -0.05,-5.75 -2.15,-7.37 l -29.780001,-23.01 c -4.59,-3.55 -2.37,-11.68 3.190001,-11.68 h 37.58 c 2.41,0 4.55,-1.73 5.34,-4.31 l 11.86,-38.79 c 1.75,-5.74 8.93,-5.74 10.68,0 z"
     id="path4" />
  <path
     class="cls-3"
     d="m 541.30358,138.25003 14.21,41.09 c 0.94,2.73 3.51,4.56 6.4,4.56 h 45.04 c 6.66,0 9.32,8.61 3.82,12.37 l -35.7,24.37 c -2.52,1.72 -3.58,4.92 -2.58,7.81 l 13.81,39.92 c 2.13,6.17 -4.83,11.49 -10.22,7.81 l -37.36,-25.5 c -2.3,-1.57 -5.34,-1.57 -7.64,0 l -37.36,25.5 c -5.39,3.68 -12.36,-1.64 -10.22,-7.81 l 13.81,-39.92 c 1,-2.89 -0.06,-6.09 -2.58,-7.81 l -35.7,-24.37 c -5.5,-3.76 -2.84,-12.37 3.82,-12.37 h 45.04 c 2.89,0 5.46,-1.83 6.4,-4.56 l 14.21,-41.09 c 2.1,-6.08 10.7,-6.08 12.81,0 z"
     id="path5" />
  <path
     class="cls-3"
     d="m 769.08008,575.54364 14.21,41.09 c 0.94,2.73 3.51,4.56 6.4,4.56 h 45.04 c 6.66,0 9.32,8.61 3.82,12.37 l -35.7,24.37 c -2.52,1.72 -3.58,4.92 -2.58,7.81 l 13.81,39.92 c 2.13,6.17 -4.83,11.49 -10.22,7.81 l -37.36,-25.5 c -2.3,-1.57 -5.34,-1.57 -7.64,0 l -37.36,25.5 c -5.39,3.68 -12.36,-1.64 -10.22,-7.81 l 13.81,-39.92 c 1,-2.89 -0.06,-6.09 -2.58,-7.81 l -35.7,-24.37 c -5.5,-3.76 -2.84,-12.37 3.82,-12.37 h 45.04 c 2.89,0 5.46,-1.83 6.4,-4.56 l 14.21,-41.09 c 2.1,-6.08 10.7,-6.08 12.81,0 z"
     id="path6" />
  <path
     class="cls-3"
     d="m 243.71293,427.72719 14.21,41.09 c 0.94,2.73 3.51,4.56 6.4,4.56 h 45.04 c 6.66,0 9.32,8.61 3.82,12.37 l -35.7,24.37 c -2.52,1.72 -3.58,4.92 -2.58,7.81 l 13.81,39.92 c 2.13,6.17 -4.83,11.49 -10.22,7.81 l -37.36,-25.5 c -2.3,-1.57 -5.34,-1.57 -7.64,0 l -37.36,25.5 c -5.39,3.68 -12.36,-1.64 -10.22,-7.81 l 13.81,-39.92 c 1,-2.89 -0.06,-6.09 -2.58,-7.81 l -35.7,-24.37 c -5.5,-3.76 -2.84,-12.37 3.82,-12.37 h 45.04 c 2.89,0 5.46,-1.83 6.4,-4.56 l 14.21,-41.09 c 2.1,-6.08 10.7,-6.08 12.81,0 z"
     id="path7" />
  <rect
     class="cls-3"
     x="535.22144"
     y="-257.04996"
     width="131.81"
     height="124"
     rx="22.82"
     ry="22.82"
     transform="rotate(24.27)"
     id="rect7" />
  <rect
     class="cls-3"
     x="373.29593"
     y="490.1987"
     width="167.64999"
     height="156.73"
     rx="22.82"
     ry="22.82"
     transform="rotate(24.27)"
     id="rect8" />
  <path
     class="cls-3"
     d="m 52.276647,269.33983 -62.809362,104.51215 c -5.008608,8.34224 2.207585,18.17949 13.3285928,18.17949 H 128.4146 c 11.12101,0 18.3372,-9.84722 13.32859,-18.17949 L 78.933833,269.33983 c -5.518963,-9.17944 -21.138223,-9.17944 -26.657186,0 z"
     id="path8" />
</svg>
